:SAMPLES-PER-SECOND 30
:FULLY-SPECIFIED
:DEGREES
32
root  -72.2919 41.6452 -3.46138 30.2822 87.8432 27.5788
RightUpLeg  -0.777684 -7.96762 -4.66319
RightLeg  5.22868 -4.98363 3.43782
RightFoot  -5.03772 0.0337124 -1.39231
RightToes  0.000482159 0.542163 -0.142577
Spine  8.43271 1.14906 -1.67169
Spine1  -2.43328 0.763706 2.32121
HEad  -8.97295 -0.111814 1.0308
LeftShoulder1  1.60007 -3.28472 -16.7955
LeftArm  -20.6561 19.2763 -15.1849
LeftForeArm  21.5832 -5.04659 0.017174
LeftHand  -0.25398 0.0180481 5.50724
RightShoulder  1.18699 1.73356 15.9359
RightArm  -23.6127 -12.8639 9.30358
RightForeArm  1.42322 7.14368 2.05074
RightHand  -1.17098 2.72543 -16.9202
LeftUpLeg  -1.82807 3.49603 0.986962
LeftLeg  2.44023 9.1458 -3.58687
LeftFoot  -2.13338 -0.109605 1.52896
LeftToes  1.06245e-005 4.65855e-005 -8.18503e-006
33
root  -72.2117 41.6452 -3.48571 30.8202 87.8431 28.0638
RightUpLeg  -0.584939 -8.1438 -4.82324
RightLeg  5.03424 -4.78591 3.60625
RightFoot  -5.08767 0.028938 -1.32465
RightToes  0.000482159 0.542163 -0.142577
Spine  8.27783 1.15472 -1.62914
Spine1  -2.30887 0.796022 2.18689
HEad  -8.75868 -0.010183 1.23672
LeftShoulder1  1.58912 -3.29707 -16.576
LeftArm  -20.758 19.3439 -15.3295
LeftForeArm  21.7595 -5.13857 0.0418537
LeftHand  -0.25398 0.0180481 5.50724
RightShoulder  1.20048 1.75229 16.1277
RightArm  -23.5806 -12.9265 9.09985
RightForeArm  1.35283 7.19314 2.05413
RightHand  -1.15907 2.61945 -16.9581
LeftUpLeg  -1.67958 3.47808 0.932033
LeftLeg  2.27941 9.15779 -3.62506
LeftFoot  -2.17738 -0.111051 1.56123
LeftToes  1.06245e-005 4.65855e-005 -8.18503e-006
34
root  -72.1345 41.6432 -3.51572 31.9953 87.8402 29.139
RightUpLeg  -0.54777 -8.17267 -4.90827
RightLeg  4.98992 -4.78156 3.58405
RightFoot  -5.14102 0.0227369 -1.23259
RightToes  0.000482159 0.542163 -0.142577
Spine  8.07095 1.14412 -1.52621
Spine1  -2.19858 0.827403 1.98006
HEad  -8.53273 -0.14841 1.32221
LeftShoulder1  1.60808 -3.41756 -16.434
LeftArm  -20.6767 19.428 -15.3279
LeftForeArm  21.7307 -5.10249 0.0241517
LeftHand  -0.25398 0.0180481 5.50724
RightShoulder  1.2184 1.78776 16.3303
RightArm  -23.3707 -12.9973 8.84739
RightForeArm  1.16239 7.29201 2.12546
RightHand  -1.14383 2.48514 -17.0126
LeftUpLeg  -1.64289 3.41924 0.834859
LeftLeg  2.2177 9.19508 -3.63278
LeftFoot  -2.23388 -0.110823 1.56802
LeftToes  1.06245e-005 4.65855e-005 -8.18503e-006
35
root  -72.0635 41.6378 -3.54498 33.2482 87.8612 30.2568
RightUpLeg  -0.660058 -7.98636 -4.84944
RightLeg  5.1118 -5.04679 3.32272
RightFoot  -5.25587 0.0103767 -1.04237
RightToes  0.000482159 0.542163 -0.142577
Spine  7.93732 1.15372 -1.5493
Spine1  -2.21687 0.831418 2.02095
HEad  -8.24381 -0.309356 1.25061
LeftShoulder1  1.65103 -3.55349 -16.6129
LeftArm  -20.4636 19.4471 -15.0907
LeftForeArm  21.6046 -5.00424 -0.0255948
LeftHand  -0.25398 0.0180481 5.50724
RightShoulder  1.23091 1.84228 16.3298
RightArm  -23.0571 -13.1688 8.63536
RightForeArm  0.685311 7.4408 2.24934
RightHand  -1.14216 2.39566 -17.173
LeftUpLeg  -1.73582 3.33994 0.734958
LeftLeg  2.31393 9.24405 -3.58488
LeftFoot  -2.30661 -0.110555 1.57465
LeftToes  1.06245e-005 4.65855e-005 -8.18503e-006
36
root  -71.9896 41.6328 -3.57427 34.8195 87.9046 31.7309
RightUpLeg  -0.725184 -7.8007 -4.7948
RightLeg  5.25158 -5.30813 3.05335
RightFoot  -5.43516 -0.00512653 -0.80067
RightToes  0.000482159 0.542163 -0.142577
Spine  7.84932 1.12942 -1.70741
Spine1  -2.17668 0.764465 2.23564
HEad  -7.91425 -0.15775 1.31351
LeftShoulder1  1.63164 -3.43388 -16.7428
LeftArm  -20.3991 19.3979 -15.0158
LeftForeArm  21.5911 -5.04215 -0.0583641
LeftHand  -0.25398 0.0180481 5.50724
RightShoulder  1.23027 1.87557 16.1617
RightArm  -23.0102 -13.2531 8.62135
RightForeArm  0.557191 7.48745 2.27341
RightHand  -1.16471 2.51578 -17.2511
LeftUpLeg  -1.78624 3.25111 0.629748
LeftLeg  2.41487 9.2996 -3.52015
LeftFoot  -2.38448 -0.113538 1.63605
LeftToes  1.06245e-005 4.65855e-005 -8.18503e-006
37
root  -71.911 41.6279 -3.60954 36.4677 87.9349 33.3277
RightUpLeg  -0.665981 -7.84188 -4.88924
RightLeg  5.29439 -5.32053 3.01938
RightFoot  -5.56177 -0.0129567 -0.67531
RightToes  0.000482159 0.542163 -0.142577
Spine  7.6633 1.01973 -1.78428
Spine1  -1.8523 0.643484 2.26874
HEad  -7.7064 0.174843 1.62043
LeftShoulder1  1.52312 -3.03106 -16.503
LeftArm  -20.5589 19.3058 -15.3269
LeftForeArm  21.6834 -5.23835 -0.0631604
LeftHand  -0.25398 0.0180481 5.50724
RightShoulder  1.22004 1.85834 16.0339
RightArm  -23.2818 -13.0668 8.82165
RightForeArm  1.01172 7.387 2.17838
RightHand  -1.19458 2.79372 -17.1099
LeftUpLeg  -1.74507 3.18508 0.525463
LeftLeg  2.4514 9.33462 -3.5052
LeftFoot  -2.48482 -0.119404 1.74667
LeftToes  1.06245e-005 4.65855e-005 -8.18503e-006
38
root  -71.8348 41.6207 -3.65347 36.7149 87.9189 33.5135
RightUpLeg  -0.571277 -8.0818 -5.09423
RightLeg  5.2516 -5.10414 3.22199
RightFoot  -5.5866 -0.00963399 -0.720084
RightToes  0.000482159 0.542163 -0.142577
Spine  7.45611 0.915328 -1.68173
Spine1  -1.51007 0.572547 2.08568
HEad  -7.68063 0.230233 1.83266
LeftShoulder1  1.43138 -2.70204 -16.2349
LeftArm  -20.6859 19.238 -15.6201
LeftForeArm  21.7176 -5.42461 -0.0768398
LeftHand  -0.25398 0.0180481 5.50724
RightShoulder  1.20815 1.80913 16.0194
RightArm  -23.464 -12.8077 8.98733
RightForeArm  1.30233 7.30428 2.12864
RightHand  -1.1993 2.9139 -16.939
LeftUpLeg  -1.71818 3.1788 0.457356
LeftLeg  2.50555 9.35288 -3.54636
LeftFoot  -2.62145 -0.125592 1.8634
LeftToes  1.06245e-005 4.65855e-005 -8.18503e-006
